 http://lookpic.com/O/i2/790/epN0YZ8A.jpeg

Source: 720p OWNCAM XviD - MATiNE - Thanks Much. 
 
http://www.imdb.com/title/tt0790724/

A homicide investigator digs deeper into a case involving a trained military sniper who shot five random victims.

General
Complete name                            : Jack Reacher 2012 CAM x264 AAC-BiGKATS.mp4
Format                                   : MPEG-4
Format profile                           : Base Media
Codec ID                                 : isom
File size                                : 2.22 GiB
Duration                                 : 2h 4mn
Overall bit rate mode                    : Variable
Overall bit rate                         : 2 545 Kbps
Encoded date                             : UTC 2012-12-27 18:44:29
Tagged date                              : UTC 2012-12-27 18:44:29

Video
ID                                       : 1
Format                                   : AVC
Format/Info                              : Advanced Video Codec
Format profile                           : High@L4.1
Format settings, CABAC                   : Yes
Format settings, ReFrames                : 3 frames
Codec ID                                 : avc1
Codec ID/Info                            : Advanced Video Coding
Duration                                 : 2h 4mn
Bit rate mode                            : Variable
Bit rate                                 : 2 447 Kbps
Maximum bit rate                         : 40.0 Mbps
Width                                    : 720 pixels
Height                                   : 344 pixels
Display aspect ratio                     : 2.093
Frame rate mode                          : Constant
Frame rate                               : 29.970 fps
Color space                              : YUV
Chroma subsampling                       : 4:2:0
Bit depth                                : 8 bits
Scan type                                : Progressive
Bits/(Pixel*Frame)                       : 0.330
Stream size                              : 2.13 GiB (96%)
Writing library                          : x264 core 129 r2230 1cffe9f

Audio
ID                                       : 2
Format                                   : AAC
Format/Info                              : Advanced Audio Codec
Format profile                           : LC
Codec ID                                 : 40
Duration                                 : 2h 4mn
Bit rate mode                            : Variable
Bit rate                                 : 93.8 Kbps
Maximum bit rate                         : 112 Kbps
Channel(s)                               : 2 channels
Channel positions                        : Front: L R
Sampling rate                            : 48.0 KHz
Compression mode                         : Lossy
Stream size                              : 83.7 MiB (4%)
Language                                 : English
Encoded date                             : UTC 2012-12-27 18:45:28
Tagged date                              : UTC 2012-12-27 18:45:31


 
http://lookpic.com/O/i2/264/hFyjDgEA.png 
http://lookpic.com/O/i2/1985/qsRLXVGt.png 
http://lookpic.com/O/i2/219/rLPSkQPK.png 
http://lookpic.com/O/i2/1771/fxOf3QZf.png 
http://lookpic.com/O/i2/248/LIm9Q107.png 
http://lookpic.com/O/i2/1293/Xe1o8UZj.png

Very nice source, big ups to MATiNE  i just adjusted the AR to what i thought looked right, tweaked hue, sat, brightness, contrast then sharpened. there is still flicker so take it or leave it, and the audio aint that bad, enjoy. 

Greets: TRiNiTY, Stonehill, UnKnOwN.
